HIERARCHY
ROOT Hips
{
	OFFSET 0.000000 100.481300 0.000000
	CHANNELS 6 Xposition Yposition Zposition Xrotation Yrotation Zrotation 
	JOINT Spine
	{
		OFFSET -0.279200 12.230698 -2.892100
		CHANNELS 3 Xrotation Yrotation Zrotation
		JOINT Spine1
		{
			OFFSET -0.232667 10.192268 -1.242267
			CHANNELS 3 Xrotation Yrotation Zrotation
			JOINT Spine1_split
			{
				OFFSET -0.232667 10.192268 -1.242267
				CHANNELS 3 Xrotation Yrotation Zrotation
				JOINT Spine2
				{
					OFFSET -0.232667 10.192268 -1.242267
					CHANNELS 3 Xrotation Yrotation Zrotation
					JOINT Neck
					{
						OFFSET -0.418800 17.814194 8.416900
						CHANNELS 3 Xrotation Yrotation Zrotation
						JOINT Head
						{
							OFFSET 0.000000 7.031097 3.806800
							CHANNELS 3 Xrotation Yrotation Zrotation
							JOINT HeadTop_End
							{
								OFFSET 0.000000 24.646606 12.978600
								CHANNELS 3 Xrotation Yrotation Zrotation
								End Site
								{
									OFFSET 0.000000 0.000000 0.000000
								}
							}
						}
					}
					JOINT LeftShoulder
					{
						OFFSET 8.476499 7.247704 -3.868750
						CHANNELS 3 Xrotation Yrotation Zrotation
						JOINT LeftShoulder_split
						{
							OFFSET 8.476499 7.247704 -3.868750
							CHANNELS 3 Xrotation Yrotation Zrotation
							JOINT LeftArm
							{
								OFFSET 9.308998 -2.777710 0.208600
								CHANNELS 3 Xrotation Yrotation Zrotation
								JOINT LeftForeArm
								{
									OFFSET 29.972298 0.000000 0.000000
									CHANNELS 3 Xrotation Yrotation Zrotation
									JOINT LeftHand
									{
										OFFSET 26.026505 0.000000 0.000000
										CHANNELS 3 Xrotation Yrotation Zrotation
										JOINT LeftHandThumb1
										{
											OFFSET 12.240501 -7.147949 9.207150
											CHANNELS 3 Xrotation Yrotation Zrotation
											JOINT LeftHandThumb2
											{
												OFFSET 4.138618 -2.389435 2.389433
												CHANNELS 3 Xrotation Yrotation Zrotation
												JOINT LeftHandThumb3
												{
													OFFSET 2.726913 -1.574387 1.574386
													CHANNELS 3 Xrotation Yrotation Zrotation
													JOINT LeftHandThumb4
													{
														OFFSET 3.941010 -2.275345 2.275342
														CHANNELS 3 Xrotation Yrotation Zrotation
														End Site
														{
															OFFSET 0.000000 0.000000 0.000000
														}
													}
												}
											}
										}
										JOINT LeftHandIndex1
										{
											OFFSET 24.424698 -1.985611 5.953459
											CHANNELS 3 Xrotation Yrotation Zrotation
											JOINT LeftHandIndex2
											{
												OFFSET 6.426697 0.000000 0.000000
												CHANNELS 3 Xrotation Yrotation Zrotation
												JOINT LeftHandIndex3
												{
													OFFSET 5.337898 0.000000 0.000000
													CHANNELS 3 Xrotation Yrotation Zrotation
													JOINT LeftHandIndex4
													{
														OFFSET 4.409401 0.000000 0.000000
														CHANNELS 3 Xrotation Yrotation Zrotation
														End Site
														{
															OFFSET 0.000000 0.000000 0.000000
														}
													}
												}
											}
										}
										JOINT LeftHandMiddle1
										{
											OFFSET 23.810104 0.000000 0.000000
											CHANNELS 3 Xrotation Yrotation Zrotation
											JOINT LeftHandMiddle2
											{
												OFFSET 7.176498 0.000000 0.000000
												CHANNELS 3 Xrotation Yrotation Zrotation
												JOINT LeftHandMiddle3
												{
													OFFSET 6.774902 0.000000 0.000000
													CHANNELS 3 Xrotation Yrotation Zrotation
													JOINT LeftHandMiddle4
													{
														OFFSET 5.403328 0.000000 0.000000
														CHANNELS 3 Xrotation Yrotation Zrotation
														End Site
														{
															OFFSET 0.000000 0.000000 0.000000
														}
													}
												}
											}
										}
										JOINT LeftHandRing1
										{
											OFFSET 22.908401 -0.839279 -6.020567
											CHANNELS 3 Xrotation Yrotation Zrotation
											JOINT LeftHandRing2
											{
												OFFSET 6.337502 0.000000 0.000000
												CHANNELS 3 Xrotation Yrotation Zrotation
												JOINT LeftHandRing3
												{
													OFFSET 5.779297 0.000000 0.000000
													CHANNELS 3 Xrotation Yrotation Zrotation
													JOINT LeftHandRing4
													{
														OFFSET 4.965698 0.000000 0.000000
														CHANNELS 3 Xrotation Yrotation Zrotation
														End Site
														{
															OFFSET 0.000000 0.000000 0.000000
														}
													}
												}
											}
										}
										JOINT LeftHandPinky1
										{
											OFFSET 20.037003 -1.530319 -10.950146
											CHANNELS 3 Xrotation Yrotation Zrotation
											JOINT LeftHandPinky2
											{
												OFFSET 5.254700 0.000000 0.000000
												CHANNELS 3 Xrotation Yrotation Zrotation
												JOINT LeftHandPinky3
												{
													OFFSET 4.810204 0.000000 0.000000
													CHANNELS 3 Xrotation Yrotation Zrotation
													JOINT LeftHandPinky4
													{
														OFFSET 3.647202 0.000000 0.000000
														CHANNELS 3 Xrotation Yrotation Zrotation
														End Site
														{
															OFFSET 0.000000 0.000000 0.000000
														}
													}
												}
											}
										}
									}
								}
							}
						}
					}
					JOINT RightShoulder
					{
						OFFSET -7.570500 7.247704 -3.868750
						CHANNELS 3 Xrotation Yrotation Zrotation
						JOINT RightShoulder_split
						{
							OFFSET -7.570500 7.247704 -3.868750
							CHANNELS 3 Xrotation Yrotation Zrotation
							JOINT RightArm
							{
								OFFSET -9.308998 -2.777710 0.208500
								CHANNELS 3 Xrotation Yrotation Zrotation
								JOINT RightForeArm
								{
									OFFSET -29.972300 0.000000 0.000000
									CHANNELS 3 Xrotation Yrotation Zrotation
									JOINT RightHand
									{
										OFFSET -26.026505 0.000000 0.000000
										CHANNELS 3 Xrotation Yrotation Zrotation
										JOINT RightHandThumb1
										{
											OFFSET -12.240601 -7.148026 9.207092
											CHANNELS 3 Xrotation Yrotation Zrotation
											JOINT RightHandThumb2
											{
												OFFSET -4.138618 -2.389435 2.389433
												CHANNELS 3 Xrotation Yrotation Zrotation
												JOINT RightHandThumb3
												{
													OFFSET -2.726974 -1.574417 1.574421
													CHANNELS 3 Xrotation Yrotation Zrotation
													JOINT RightHandThumb4
													{
														OFFSET -3.941010 -2.275345 2.275343
														CHANNELS 3 Xrotation Yrotation Zrotation
														End Site
														{
															OFFSET 0.000000 0.000000 0.000000
														}
													}
												}
											}
										}
										JOINT RightHandIndex1
										{
											OFFSET -24.424698 -1.985657 5.953444
											CHANNELS 3 Xrotation Yrotation Zrotation
											JOINT RightHandIndex2
											{
												OFFSET -6.426697 0.000000 0.000000
												CHANNELS 3 Xrotation Yrotation Zrotation
												JOINT RightHandIndex3
												{
													OFFSET -5.337898 0.000000 0.000000
													CHANNELS 3 Xrotation Yrotation Zrotation
													JOINT RightHandIndex4
													{
														OFFSET -4.409401 0.000000 0.000000
														CHANNELS 3 Xrotation Yrotation Zrotation
														End Site
														{
															OFFSET 0.000000 0.000000 0.000000
														}
													}
												}
											}
										}
										JOINT RightHandMiddle1
										{
											OFFSET -23.810097 0.000000 0.000000
											CHANNELS 3 Xrotation Yrotation Zrotation
											JOINT RightHandMiddle2
											{
												OFFSET -7.176498 0.000000 0.000000
												CHANNELS 3 Xrotation Yrotation Zrotation
												JOINT RightHandMiddle3
												{
													OFFSET -6.774902 0.000000 0.000000
													CHANNELS 3 Xrotation Yrotation Zrotation
													JOINT RightHandMiddle4
													{
														OFFSET -5.403328 0.000000 0.000000
														CHANNELS 3 Xrotation Yrotation Zrotation
														End Site
														{
															OFFSET 0.000000 0.000000 0.000000
														}
													}
												}
											}
										}
										JOINT RightHandRing1
										{
											OFFSET -22.908302 -0.839325 -6.020576
											CHANNELS 3 Xrotation Yrotation Zrotation
											JOINT RightHandRing2
											{
												OFFSET -6.337502 0.000000 0.000000
												CHANNELS 3 Xrotation Yrotation Zrotation
												JOINT RightHandRing3
												{
													OFFSET -5.779297 0.000000 0.000000
													CHANNELS 3 Xrotation Yrotation Zrotation
													JOINT RightHandRing4
													{
														OFFSET -4.965698 0.000000 0.000000
														CHANNELS 3 Xrotation Yrotation Zrotation
														End Site
														{
															OFFSET 0.000000 0.000000 0.000000
														}
													}
												}
											}
										}
										JOINT RightHandPinky1
										{
											OFFSET -20.037003 -1.530334 -10.950259
											CHANNELS 3 Xrotation Yrotation Zrotation
											JOINT RightHandPinky2
											{
												OFFSET -5.254700 0.000000 0.000000
												CHANNELS 3 Xrotation Yrotation Zrotation
												JOINT RightHandPinky3
												{
													OFFSET -4.810204 0.000000 0.000000
													CHANNELS 3 Xrotation Yrotation Zrotation
													JOINT RightHandPinky4
													{
														OFFSET -3.647202 0.000000 0.000000
														CHANNELS 3 Xrotation Yrotation Zrotation
														End Site
														{
															OFFSET 0.000000 0.000000 0.000000
														}
													}
												}
											}
										}
									}
								}
							}
						}
					}
				}
			}
		}
	}
	JOINT LeftUpLeg
	{
		OFFSET 15.427100 -6.655098 0.678600
		CHANNELS 3 Xrotation Yrotation Zrotation
		JOINT LeftLeg
		{
			OFFSET 4.081073 -39.591068 13.024000
			CHANNELS 3 Xrotation Yrotation Zrotation
			JOINT LeftFoot
			{
				OFFSET -4.081074 -37.707932 -15.979700
				CHANNELS 3 Xrotation Yrotation Zrotation
				JOINT LeftToeBase
				{
					OFFSET 5.346399 -15.068900 20.645000
					CHANNELS 3 Xrotation Yrotation Zrotation
					JOINT LeftToe_End
					{
						OFFSET 2.754700 0.931300 11.300900
						CHANNELS 3 Xrotation Yrotation Zrotation
						End Site
						{
							OFFSET 0.000000 0.000000 0.000000
						}
					}
				}
			}
		}
	}
	JOINT RightUpLeg
	{
		OFFSET -15.569500 -6.655098 0.678600
		CHANNELS 3 Xrotation Yrotation Zrotation
		JOINT RightLeg
		{
			OFFSET -4.081825 -39.591045 13.023800
			CHANNELS 3 Xrotation Yrotation Zrotation
			JOINT RightFoot
			{
				OFFSET 4.081824 -37.707954 -15.979600
				CHANNELS 3 Xrotation Yrotation Zrotation
				JOINT RightToeBase
				{
					OFFSET -5.346400 -15.068900 20.645000
					CHANNELS 3 Xrotation Yrotation Zrotation
					JOINT RightToe_End
					{
						OFFSET -2.754700 0.931300 11.300900
						CHANNELS 3 Xrotation Yrotation Zrotation
						End Site
						{
							OFFSET 0.000000 0.000000 0.000000
						}
					}
				}
			}
		}
	}
}
MOTION
Frames: 4
Frame Time: 0.016667
1.535923 87.845352 -4.832631 2.055186 -10.527032 -1.360579 21.619215 5.708111 0.924156 2.971768 1.798110 -0.052723 0.000000 0.000000 0.000000 2.970860 1.873018 -0.065766 -3.972172 15.157914 2.233331 6.503279 46.829075 -20.357744 -0.000000 0.000002 0.000001 1.350338 -32.914022 3.985059 0.000000 0.000000 0.000000 -22.769908 -14.531405 -67.625935 0.000005 -44.195702 -9.360775 -35.824404 -9.101363 -6.762452 -7.471929 1.860694 -7.166907 30.987001 27.310539 -4.510881 83.254631 13.297885 -10.940242 0.000002 0.000000 -0.000000 -4.686319 11.374159 -75.574172 -0.816405 3.074000 -46.874625 -4.740620 0.379137 -78.699448 -0.000001 -0.000000 -0.000002 1.616605 16.582665 -84.688800 0.018017 0.022037 -72.884867 -1.306130 -0.091045 -19.943114 -0.000000 -0.000001 0.000000 -7.765811 20.752801 -77.737784 0.013346 0.983460 -51.003594 6.778244 8.421302 -40.137897 -0.000000 0.000001 0.000002 -13.924178 3.850331 -44.469815 0.013464 0.024876 -63.895149 0.008428 0.013218 -43.420626 0.000000 -0.000001 0.000000 9.555405 22.112635 -11.863559 0.000000 0.000000 0.000000 -43.977836 10.617597 77.772994 0.000007 50.389051 2.241428 -28.429790 16.642758 6.785468 9.347165 2.810567 -11.364509 16.169107 -43.266001 15.843568 32.491825 -44.566762 5.661152 0.000003 -0.000001 -0.000001 17.076781 -0.396527 31.924345 -0.204420 -0.284205 112.811550 1.553141 -1.173020 33.344550 0.000000 0.000000 -0.000001 9.205469 -5.035898 102.738100 0.014980 -0.019193 61.018492 1.871343 0.346191 31.443787 -0.000003 -0.000001 -0.000003 5.569147 -8.935235 107.329087 0.547985 -0.005793 41.263697 0.739132 0.837854 51.122245 0.000001 -0.000000 0.000000 6.511226 -17.148243 98.228017 0.007415 -0.015751 43.845737 0.011242 -0.024766 57.754563 0.000001 -0.000001 -0.000001 -36.486905 1.962697 8.753821 29.891677 0.212780 2.493528 4.669670 0.359801 -5.668347 -0.380440 -1.204945 -0.210156 0.000000 0.000000 -0.000000 -8.997152 -10.848677 -15.260547 30.757103 -8.296734 3.556829 -18.890312 -4.752257 14.453362 -1.190622 0.353805 0.637164 -0.000000 -0.000003 -0.000000 
1.625282 87.884209 -4.551091 2.133677 -10.141753 -1.379792 21.571587 5.718336 0.705734 2.951612 1.865108 -0.160994 0.000000 0.000000 0.000000 2.950960 1.939448 -0.175154 -4.099833 15.090190 2.372695 6.098629 46.772917 -19.938103 -0.000000 0.000003 -0.000001 1.306153 -33.191291 4.056575 0.000000 0.000000 0.000000 -22.439089 -14.543448 -67.584783 0.000007 -44.463702 -8.793770 -35.436661 -8.587748 -7.126266 -7.471930 1.860693 -7.166914 30.987008 27.310535 -4.510885 83.254631 13.297889 -10.940243 -0.000000 0.000001 0.000000 -4.686381 11.374039 -75.571160 -0.816399 3.074001 -46.874622 -4.740622 0.379141 -78.699448 0.000003 -0.000000 0.000001 1.616618 16.582661 -84.688827 0.018011 0.022037 -72.884867 -1.306115 -0.091042 -19.943109 0.000001 0.000003 -0.000003 -7.759316 20.770694 -77.712738 0.013337 0.983461 -51.003587 6.778239 8.421292 -40.137873 -0.000001 -0.000000 -0.000000 -14.013718 3.966964 -44.412622 0.013513 0.024911 -64.018926 0.008407 0.013187 -43.300537 0.000000 -0.000002 0.000000 9.474265 21.562347 -11.639588 0.000000 0.000000 0.000000 -44.239053 10.875450 78.236784 0.000023 50.076403 2.035034 -28.523176 16.871173 6.756818 9.347163 2.810564 -11.364513 16.169110 -43.265997 15.843568 32.491825 -44.566762 5.661147 0.000001 -0.000000 -0.000001 17.076783 -0.396527 31.924345 -0.204419 -0.284205 112.811557 1.553141 -1.173020 33.344553 -0.000001 -0.000001 -0.000000 9.205471 -5.035900 102.738107 0.014981 -0.019194 61.018499 1.871344 0.346194 31.443787 -0.000000 0.000000 0.000002 5.569147 -8.935234 107.329094 0.547986 -0.005794 41.263700 0.739132 0.837854 51.122245 0.000001 -0.000001 -0.000002 6.511225 -17.148242 98.228024 0.007410 -0.015750 43.845740 0.011242 -0.024772 57.754556 -0.000001 0.000001 -0.000001 -36.509786 1.964313 8.459385 29.966789 0.020360 2.546525 4.503854 0.339061 -5.480604 -0.389919 -1.257103 -0.209100 -0.000000 0.000000 -0.000000 -8.550694 -10.929217 -15.315173 30.464061 -8.581713 3.578434 -18.935137 -4.872153 14.751607 -1.185616 0.325696 0.665575 -0.000000 0.000001 -0.000000 
1.708866 87.914833 -4.270218 2.212765 -9.781021 -1.384197 21.519607 5.709451 0.481510 2.933344 1.930219 -0.273806 0.000000 0.000000 0.000000 2.932958 2.004093 -0.288579 -4.241908 15.007608 2.532610 5.637724 46.665983 -19.447734 -0.000000 -0.000001 0.000001 1.253897 -33.456831 4.134834 0.000000 0.000000 0.000000 -22.076213 -14.578436 -67.548133 0.000014 -44.717027 -8.228635 -35.111571 -8.142431 -7.495870 -7.471931 1.860694 -7.166911 30.987004 27.310539 -4.510885 83.254637 13.297887 -10.940242 -0.000006 -0.000001 0.000000 -4.686464 11.373935 -75.568120 -0.816399 3.073999 -46.874625 -4.740622 0.379137 -78.699455 0.000001 0.000000 -0.000001 1.616623 16.582654 -84.688820 0.018016 0.022037 -72.884874 -1.306120 -0.091054 -19.943124 0.000002 0.000003 -0.000001 -7.752836 20.788965 -77.688170 0.013346 0.983445 -51.003601 6.778234 8.421322 -40.137897 0.000001 0.000000 0.000002 -14.104053 4.086251 -44.357636 0.013567 0.024913 -64.143550 0.008359 0.013143 -43.178086 0.000001 -0.000002 0.000000 9.408118 21.067913 -11.442656 0.000000 0.000000 0.000000 -44.479858 11.089953 78.693396 0.000022 49.790993 1.848506 -28.571603 17.092975 6.703816 9.347164 2.810566 -11.364510 16.169105 -43.265997 15.843570 32.491825 -44.566769 5.661155 0.000005 -0.000000 -0.000001 17.076786 -0.396526 31.924338 -0.204420 -0.284205 112.811557 1.553141 -1.173019 33.344553 0.000000 -0.000001 -0.000002 9.205469 -5.035900 102.738100 0.014981 -0.019193 61.018499 1.871343 0.346194 31.443787 -0.000002 -0.000001 0.000002 5.569146 -8.935236 107.329087 0.547983 -0.005794 41.263697 0.739132 0.837853 51.122245 0.000003 0.000000 -0.000002 6.511225 -17.148243 98.228017 0.007414 -0.015749 43.845744 0.011241 -0.024766 57.754556 0.000001 0.000001 -0.000002 -36.523091 1.950365 8.180045 30.050418 -0.142347 2.576402 4.327592 0.320614 -5.303151 -0.394784 -1.284873 -0.208667 0.000000 0.000000 -0.000000 -8.142362 -11.036936 -15.372806 30.195734 -8.821955 3.572609 -18.990151 -4.987644 15.037618 -1.177346 0.301208 0.690888 -0.000000 0.000000 0.000000 
1.786819 87.936310 -3.991577 2.292456 -9.443376 -1.376594 21.463478 5.695829 0.256940 2.917132 1.985256 -0.390848 0.000000 0.000000 0.000000 2.916580 2.058883 -0.406593 -4.390905 14.896788 2.706928 5.129831 46.545004 -18.898495 0.000001 -0.000003 0.000001 1.216770 -33.714487 4.232017 0.000000 0.000000 0.000000 -21.704815 -14.643569 -67.511434 -0.000003 -44.942494 -7.663750 -34.862884 -7.769639 -7.870571 -7.471929 1.860693 -7.166911 30.987008 27.310535 -4.510883 83.254631 13.297887 -10.940244 -0.000001 0.000000 -0.000000 -4.686534 11.373812 -75.565033 -0.816405 3.074001 -46.874625 -4.740620 0.379136 -78.699455 0.000001 0.000003 -0.000003 1.616627 16.582659 -84.688820 0.018023 0.022037 -72.884880 -1.306127 -0.091044 -19.943092 0.000004 -0.000001 -0.000002 -7.746355 20.807553 -77.664059 0.013337 0.983452 -51.003594 6.778246 8.421301 -40.137900 -0.000000 0.000000 -0.000001 -14.195112 4.208172 -44.304808 0.013628 0.024956 -64.268904 0.008332 0.013114 -43.053408 -0.000000 0.000002 0.000000 9.352113 20.644021 -11.270546 0.000000 0.000000 0.000000 -44.692144 11.251936 79.128507 0.000037 49.534205 1.683173 -28.576077 17.303991 6.626707 9.347164 2.810567 -11.364509 16.169109 -43.266001 15.843575 32.491828 -44.566762 5.661152 0.000001 0.000001 -0.000000 17.076784 -0.396527 31.924345 -0.204420 -0.284205 112.811550 1.553141 -1.173019 33.344553 0.000000 0.000001 -0.000002 9.205469 -5.035900 102.738100 0.014981 -0.019194 61.018499 1.871343 0.346192 31.443787 -0.000003 0.000000 -0.000003 5.569148 -8.935236 107.329094 0.547985 -0.005791 41.263697 0.739132 0.837855 51.122248 0.000001 -0.000000 0.000001 6.511222 -17.148245 98.228017 0.007413 -0.015749 43.845740 0.011241 -0.024768 57.754556 -0.000001 0.000000 -0.000001 -36.545057 1.979094 7.904276 30.150087 -0.319157 2.620924 4.142447 0.300824 -5.130156 -0.395706 -1.291660 -0.208757 0.000000 0.000000 -0.000000 -7.741257 -11.081530 -15.442370 29.958272 -9.089168 3.589477 -19.055386 -5.106516 15.323864 -1.223655 0.270143 0.714840 -0.000000 -0.000002 -0.000000 
